<?xml version="1.0" standalone="no"?>
<!DOCTYPE svg PUBLIC "-//W3C//DTD SVG 20010904//EN"
 "http://www.w3.org/TR/2001/REC-SVG-20010904/DTD/svg10.dtd">
<svg version="1.0" xmlns="http://www.w3.org/2000/svg"
 width="297.000000pt" height="170.000000pt" viewBox="0 0 297.000000 170.000000"
 preserveAspectRatio="xMidYMid meet">

<g transform="translate(0.000000,170.000000) scale(0.100000,-0.100000)"
fill="#000000" stroke="none">
<path d="M2655 1378 c-49 -5 -92 -14 -96 -20 -4 -6 -8 -6 -10 -1 -2 5 -137 -5
-319 -24 -173 -19 -324 -34 -334 -34 -76 0 -680 -70 -692 -80 -10 -8 -14 -8
-14 0 0 6 -9 11 -20 11 -14 0 -20 -7 -20 -21 0 -20 4 -21 53 -15 28 4 67 6 85
6 17 0 32 3 32 8 0 5 10 7 23 5 12 -2 89 3 171 11 82 9 154 16 162 16 7 0 15
8 17 18 4 15 5 15 6 0 1 -13 9 -15 39 -12 87 11 501 55 542 58 73 6 288 26
384 37 98 10 126 6 126 -19 0 -15 2 -15 10 -2 7 10 8 4 4 -20 -3 -19 6 -146
20 -282 29 -280 31 -327 14 -333 -12 -4 -587 -65 -615 -65 -7 0 -13 -7 -13
-15 0 -12 -3 -13 -19 -3 -16 10 -92 4 -383 -25 -200 -21 -383 -39 -408 -41
-175 -14 -201 -18 -195 -34 4 -12 3 -12 -8 -3 -17 14 -115 9 -352 -19 -170
-19 -297 -32 -325 -32 -8 0 -22 -2 -30 -5 -8 -2 -40 -6 -70 -8 -30 -1 -92 -6
-137 -10 l-82 -8 -11 28 c-6 15 -11 39 -12 54 -1 22 -21 230 -47 489 -6 59 -4
75 9 86 12 11 375 56 454 56 9 0 15 4 12 9 -4 5 14 8 41 5 27 -2 147 6 268 19
190 19 220 24 223 40 4 22 24 23 -385 -18 -423 -42 -516 -54 -525 -69 -6 -8
-8 -7 -8 2 0 15 -37 16 -78 1 -21 -7 -29 -15 -25 -25 3 -9 0 -14 -8 -12 -8 2
-15 -7 -17 -20 -2 -13 11 -161 28 -330 30 -297 32 -308 56 -330 30 -26 26 -26
236 -3 103 11 174 24 185 32 11 9 14 10 9 1 -9 -15 -33 -17 274 14 154 16 268
31 272 38 5 7 8 6 8 -4 0 -12 2 -12 9 -2 5 8 17 11 32 7 13 -3 76 1 139 10 63
8 122 15 130 15 110 4 286 26 293 37 4 7 13 13 18 13 6 0 7 -4 4 -10 -8 -12
18 -12 110 1 73 10 118 14 198 17 27 1 46 6 42 11 -7 13 16 26 24 14 9 -14 24
-14 241 8 107 11 240 24 295 30 144 14 158 17 178 40 20 24 21 50 7 169 -5 47
-11 100 -12 118 -2 33 -12 42 -21 20 -3 -7 -6 -3 -6 10 -1 12 4 22 10 22 7 0
9 16 6 48 -3 26 -8 79 -11 117 -12 163 -25 200 -76 208 -14 3 -65 0 -115 -5z"/>
<path d="M2255 1275 c-225 -24 -774 -79 -1220 -124 -445 -45 -820 -84 -832
-86 -13 -3 -29 -15 -37 -28 -13 -19 -11 -53 12 -288 18 -174 32 -272 41 -283
18 -22 53 -21 343 9 134 13 468 47 743 75 1565 158 1489 149 1509 170 19 18
19 23 -8 287 -18 175 -33 276 -42 291 -19 28 -6 29 -509 -23z m490 21 c17 -12
23 -48 47 -282 25 -253 26 -270 10 -286 -14 -13 -118 -27 -572 -72 -305 -31
-876 -88 -1268 -128 -640 -64 -714 -70 -728 -56 -11 11 -22 77 -40 249 -28
276 -29 302 -9 319 10 9 184 30 488 61 1219 123 1888 191 1952 198 39 5 77 9
86 10 8 0 24 -5 34 -13z"/>
<path d="M2665 1233 l-31 -4 8 -67 c4 -37 7 -80 7 -97 0 -34 4 -43 -45 88
l-26 67 -39 0 -40 0 5 -42 c4 -24 13 -110 21 -193 23 -226 20 -215 60 -215 34
0 35 1 34 38 0 20 -4 63 -8 95 -9 72 -1 63 35 -40 l29 -83 37 0 c46 0 45 -14
18 250 -11 107 -20 198 -20 202 0 4 -3 7 -7 6 -5 0 -22 -3 -38 -5z"/>
<path d="M2297 1186 c-14 -13 -29 -37 -33 -52 -11 -42 22 -318 41 -347 44 -67
147 -61 181 11 15 32 15 46 0 183 -21 197 -38 229 -124 229 -27 0 -47 -7 -65
-24z m98 -200 c18 -168 18 -166 0 -166 -16 0 -20 17 -36 177 -11 111 -8 156
11 137 5 -5 16 -72 25 -148z"/>
<path d="M2070 1173 c-61 -32 -66 -51 -51 -214 17 -197 40 -242 120 -241 53 1
80 17 97 58 13 31 13 53 0 178 -9 79 -20 155 -25 169 -20 53 -88 77 -141 50z
m69 -175 c7 -62 15 -128 17 -146 3 -18 2 -42 -1 -53 -14 -43 -29 2 -41 123
-17 165 -17 188 0 188 10 0 17 -30 25 -112z"/>
<path d="M1808 1145 c-32 -18 -42 -44 -40 -107 2 -64 22 -99 82 -142 66 -47
93 -115 49 -124 -12 -2 -18 8 -22 38 -3 23 -7 43 -9 46 -2 2 -21 1 -42 -3
l-38 -6 6 -45 c3 -25 13 -56 22 -69 31 -49 115 -55 160 -12 20 19 24 32 24 81
0 83 -18 118 -89 173 -55 42 -62 51 -59 78 4 44 25 46 34 3 5 -29 11 -36 29
-36 55 0 67 23 45 87 -18 50 -94 69 -152 38z"/>
<path d="M1492 1117 c-48 -28 -55 -50 -48 -165 13 -200 23 -244 65 -279 24
-21 78 -16 94 8 13 17 16 18 24 6 5 -10 17 -13 36 -10 23 5 28 10 23 28 -3 12
-8 64 -12 116 -4 52 -7 95 -8 96 -1 1 -26 0 -54 -4 -51 -6 -52 -7 -52 -39 0
-18 5 -34 11 -36 6 -2 14 -27 17 -56 4 -42 2 -52 -11 -52 -8 0 -17 10 -20 23
-11 44 -30 275 -24 291 11 28 27 17 27 -18 0 -57 7 -66 57 -66 l44 0 -7 48
c-8 55 -15 70 -42 95 -26 24 -90 31 -120 14z"/>
<path d="M1314 1063 c11 -81 17 -153 13 -153 -3 0 -20 41 -38 91 l-32 91 -35
-6 c-19 -3 -36 -7 -38 -9 -2 -2 7 -102 19 -223 l23 -219 34 3 c19 1 36 4 38 6
2 2 -1 44 -7 92 -9 82 -8 116 3 83 2 -8 16 -49 31 -91 l28 -78 38 0 c25 0 39
5 39 13 0 6 -9 102 -20 212 -11 110 -20 206 -20 213 0 7 -15 12 -41 12 l-41 0
6 -37z"/>
<path d="M1083 1073 c-18 -2 -33 -7 -33 -11 0 -4 9 -97 20 -207 11 -110 20
-208 20 -219 0 -16 6 -18 41 -13 22 3 43 8 47 11 3 4 -2 84 -12 179 -25 249
-27 267 -40 265 -6 0 -26 -3 -43 -5z"/>
<path d="M908 1053 c-16 -4 -18 -18 -19 -101 0 -108 -8 -104 -34 20 l-17 76
-56 -5 c-31 -3 -58 -7 -60 -8 -1 -1 8 -102 20 -224 l22 -221 40 0 39 0 -6 74
c-4 40 -9 100 -12 132 -6 71 3 46 35 -98 21 -97 22 -98 51 -98 l29 0 1 143 1
142 14 -115 c8 -63 15 -125 16 -138 2 -19 7 -22 40 -20 46 2 44 -16 18 233
-11 105 -20 196 -20 203 0 12 -63 15 -102 5z"/>
<path d="M508 998 l-31 -33 7 -110 c13 -223 31 -273 104 -289 52 -11 102 15
118 62 14 43 -9 298 -31 345 -31 66 -117 78 -167 25z m87 -61 c4 -13 12 -82
19 -153 12 -117 9 -160 -11 -140 -9 9 -32 195 -33 264 0 53 15 71 25 29z"/>
<path d="M285 996 c-28 -12 -45 -35 -59 -79 -7 -23 19 -284 32 -317 17 -43 46
-62 98 -62 38 0 52 5 75 29 28 28 32 45 30 121 l-1 42 -46 0 -47 0 6 -55 c5
-53 -4 -78 -24 -58 -13 13 -41 295 -30 306 17 17 28 -3 35 -64 6 -49 10 -60
22 -55 9 3 29 6 46 6 l30 0 -7 57 c-9 73 -27 108 -65 128 -35 18 -55 18 -95 1z"/>
</g>
</svg>
