<svg width="208" height="68" viewBox="0 0 208 68" fill="none" xmlns="http://www.w3.org/2000/svg">
<g filter="url(#filter0_d_2082_101)">
<rect x="3" y="1" width="200" height="60" rx="20" fill="#EA0D44"/>
</g>
<path d="M64.5 37L59.44 22.4H61.46L66 35.72L65.04 35.24H67.44L66.42 35.72L70.6 22.4H72.56L67.86 37H64.5ZM78.7394 37.36C77.806 37.36 76.9994 37.2 76.3194 36.88C75.6394 36.56 75.086 36.14 74.6594 35.62C74.2327 35.0867 73.9127 34.4933 73.6994 33.84C73.4994 33.1867 73.3994 32.52 73.3994 31.84V31.48C73.3994 30.7867 73.4994 30.1133 73.6994 29.46C73.9127 28.8067 74.2327 28.22 74.6594 27.7C75.086 27.1667 75.626 26.7467 76.2794 26.44C76.946 26.12 77.726 25.96 78.6194 25.96C79.7794 25.96 80.7327 26.2133 81.4794 26.72C82.2394 27.2133 82.7994 27.8533 83.1594 28.64C83.5327 29.4267 83.7194 30.2667 83.7194 31.16V32.02H74.2394V30.58H82.3194L81.8794 31.36C81.8794 30.6 81.7594 29.9467 81.5194 29.4C81.2794 28.84 80.9194 28.4067 80.4394 28.1C79.9594 27.7933 79.3527 27.64 78.6194 27.64C77.8594 27.64 77.226 27.8133 76.7194 28.16C76.226 28.5067 75.8527 28.98 75.5994 29.58C75.3594 30.18 75.2394 30.8733 75.2394 31.66C75.2394 32.42 75.3594 33.1067 75.5994 33.72C75.8527 34.32 76.2394 34.8 76.7594 35.16C77.2794 35.5067 77.9394 35.68 78.7394 35.68C79.5794 35.68 80.2594 35.4933 80.7794 35.12C81.3127 34.7467 81.6327 34.3133 81.7394 33.82H83.5394C83.3927 34.5533 83.0994 35.1867 82.6594 35.72C82.2194 36.2533 81.666 36.66 80.9994 36.94C80.3327 37.22 79.5794 37.36 78.7394 37.36ZM86.4455 37V26.32H87.9655V30.72H87.8855C87.8855 29.16 88.2255 28.02 88.9055 27.3C89.5988 26.5667 90.6321 26.2 92.0055 26.2H92.3655V27.92H91.6855C90.6188 27.92 89.7988 28.2067 89.2255 28.78C88.6521 29.34 88.3655 30.1533 88.3655 31.22V37H86.4455ZM99.1994 37V26.32H100.719V30.9H100.479C100.479 29.86 100.613 28.98 100.879 28.26C101.159 27.5267 101.573 26.9667 102.119 26.58C102.666 26.1933 103.359 26 104.199 26H104.279C105.119 26 105.813 26.1933 106.359 26.58C106.919 26.9667 107.333 27.5267 107.599 28.26C107.866 28.98 107.999 29.86 107.999 30.9H107.439C107.439 29.86 107.579 28.98 107.859 28.26C108.139 27.5267 108.553 26.9667 109.099 26.58C109.659 26.1933 110.359 26 111.199 26H111.279C112.119 26 112.819 26.1933 113.379 26.58C113.939 26.9667 114.353 27.5267 114.619 28.26C114.899 28.98 115.039 29.86 115.039 30.9V37H113.119V30.48C113.119 29.6133 112.906 28.9467 112.479 28.48C112.053 28 111.459 27.76 110.699 27.76C109.913 27.76 109.279 28.0133 108.799 28.52C108.319 29.0133 108.079 29.7067 108.079 30.6V37H106.159V30.48C106.159 29.6133 105.946 28.9467 105.519 28.48C105.093 28 104.499 27.76 103.739 27.76C102.953 27.76 102.319 28.0133 101.839 28.52C101.359 29.0133 101.119 29.7067 101.119 30.6V37H99.1994ZM125.015 37V33.8H124.695V30.1C124.695 29.3667 124.502 28.8133 124.115 28.44C123.742 28.0667 123.188 27.88 122.455 27.88C122.042 27.88 121.615 27.8867 121.175 27.9C120.735 27.9133 120.315 27.9267 119.915 27.94C119.515 27.9533 119.168 27.9733 118.875 28V26.32C119.168 26.2933 119.475 26.2733 119.795 26.26C120.128 26.2333 120.468 26.22 120.815 26.22C121.162 26.2067 121.495 26.2 121.815 26.2C122.908 26.2 123.802 26.3333 124.495 26.6C125.188 26.8533 125.702 27.2733 126.035 27.86C126.368 28.4467 126.535 29.24 126.535 30.24V37H125.015ZM121.515 37.28C120.715 37.28 120.022 37.1467 119.435 36.88C118.862 36.6 118.415 36.2 118.095 35.68C117.788 35.16 117.635 34.5333 117.635 33.8C117.635 33.04 117.802 32.4067 118.135 31.9C118.482 31.3933 118.982 31.0133 119.635 30.76C120.288 30.4933 121.075 30.36 121.995 30.36H124.895V31.8H121.915C121.142 31.8 120.548 31.9867 120.135 32.36C119.722 32.7333 119.515 33.2133 119.515 33.8C119.515 34.3867 119.722 34.86 120.135 35.22C120.548 35.58 121.142 35.76 121.915 35.76C122.368 35.76 122.802 35.68 123.215 35.52C123.628 35.3467 123.968 35.0667 124.235 34.68C124.515 34.28 124.668 33.7333 124.695 33.04L125.215 33.8C125.148 34.56 124.962 35.2 124.655 35.72C124.362 36.2267 123.948 36.6133 123.415 36.88C122.895 37.1467 122.262 37.28 121.515 37.28ZM130.579 37V26.32H132.499V37H130.579ZM128.939 27.84V26.32H132.499V27.84H128.939ZM131.119 24.6C130.692 24.6 130.372 24.4867 130.159 24.26C129.959 24.0333 129.859 23.7467 129.859 23.4C129.859 23.0533 129.959 22.7667 130.159 22.54C130.372 22.3133 130.692 22.2 131.119 22.2C131.545 22.2 131.859 22.3133 132.059 22.54C132.272 22.7667 132.379 23.0533 132.379 23.4C132.379 23.7467 132.272 24.0333 132.059 24.26C131.859 24.4867 131.545 24.6 131.119 24.6ZM139.711 37.32C138.311 37.32 137.224 37.02 136.451 36.42C135.691 35.82 135.298 35 135.271 33.96H137.071C137.098 34.3733 137.304 34.7667 137.691 35.14C138.091 35.5 138.764 35.68 139.711 35.68C140.564 35.68 141.218 35.5133 141.671 35.18C142.124 34.8333 142.351 34.4133 142.351 33.92C142.351 33.48 142.184 33.14 141.851 32.9C141.518 32.6467 140.978 32.48 140.231 32.4L139.071 32.28C138.058 32.1733 137.231 31.8733 136.591 31.38C135.951 30.8733 135.631 30.1667 135.631 29.26C135.631 28.58 135.804 28 136.151 27.52C136.498 27.0267 136.978 26.6533 137.591 26.4C138.204 26.1333 138.911 26 139.711 26C140.911 26 141.884 26.2667 142.631 26.8C143.378 27.3333 143.764 28.1267 143.791 29.18H141.991C141.978 28.7533 141.778 28.3933 141.391 28.1C141.018 27.7933 140.458 27.64 139.711 27.64C138.964 27.64 138.398 27.7933 138.011 28.1C137.624 28.4067 137.431 28.7933 137.431 29.26C137.431 29.66 137.564 29.98 137.831 30.22C138.111 30.46 138.564 30.6133 139.191 30.68L140.351 30.8C141.498 30.92 142.418 31.24 143.111 31.76C143.804 32.2667 144.151 32.9867 144.151 33.92C144.151 34.5867 143.958 35.18 143.571 35.7C143.198 36.2067 142.678 36.6067 142.011 36.9C141.344 37.18 140.578 37.32 139.711 37.32Z" fill="white"/>
<defs>
<filter id="filter0_d_2082_101" x="0" y="0" width="208" height="68" filterUnits="userSpaceOnUse" color-interpolation-filters="sRGB">
<feFlood flood-opacity="0" result="BackgroundImageFix"/>
<feColorMatrix in="SourceAlpha" type="matrix" values="0 0 0 0 0 0 0 0 0 0 0 0 0 0 0 0 0 0 127 0" result="hardAlpha"/>
<feOffset dx="1" dy="3"/>
<feGaussianBlur stdDeviation="2"/>
<feComposite in2="hardAlpha" operator="out"/>
<feColorMatrix type="matrix" values="0 0 0 0 0 0 0 0 0 0 0 0 0 0 0 0 0 0 0.25 0"/>
<feBlend mode="normal" in2="BackgroundImageFix" result="effect1_dropShadow_2082_101"/>
<feBlend mode="normal" in="SourceGraphic" in2="effect1_dropShadow_2082_101" result="shape"/>
</filter>
</defs>
</svg>
